<svg width="472" height="113" viewBox="0 0 472 113" fill="none" xmlns="http://www.w3.org/2000/svg">
<g clip-path="url(#clip0_275_2412)">
<path d="M0 0C155.76 0 311.52 0 472 0C472 37.29 472 74.58 472 113C316.24 113 160.48 113 0 113C0 75.71 0 38.42 0 0Z" fill="#FDFEFE"/>
<path d="M121.438 49.6875C126.068 52.3673 128.937 56.1023 131 61C131.723 67.212 131.614 72.7075 128 78C126.68 79.32 125.36 80.64 124 82C130.93 82.495 130.93 82.495 138 83C138 71.78 138 60.56 138 49C141.527 48.9382 145.054 48.8763 148.688 48.8125C150.342 48.7716 150.342 48.7716 152.03 48.7298C158.407 48.6755 161.971 49.2845 166.812 53.625C168.673 57.345 168.547 60.9242 168 65C166.478 68.335 164.585 70.4658 162 73C162.799 74.498 163.641 75.9731 164.5 77.4375C165.196 78.6731 165.196 78.6731 165.906 79.9336C168.47 82.8831 168.47 82.8831 176 83C176 71.45 176 59.9 176 48C179.63 48 183.26 48 187 48C188.321 50.3917 189.632 52.7878 190.938 55.1875C191.497 56.1978 191.497 56.1978 192.068 57.2285C194.006 60.8062 195.498 63.8987 196 68C196.66 68 197.32 68 198 68C198.238 67.1995 198.238 67.1995 198.48 66.3828C200.408 60.229 203.02 54.7178 206 49C209.96 49 213.92 49 218 49C218 60.22 218 71.44 218 83C219.65 83 221.3 83 223 83C223.378 81.7844 223.755 80.5689 224.145 79.3164C226.246 73.012 228.977 66.9988 231.688 60.9375C232.454 59.2099 232.454 59.2099 233.236 57.4473C234.487 54.6299 235.742 51.8142 237 49C239.97 49 242.94 49 246 49C249.725 56.8807 253.398 64.784 256.938 72.75C257.244 73.4287 257.55 74.1074 257.865 74.8067C259.147 77.7152 260 79.7847 260 83C264.62 82.67 269.24 82.34 274 82C273.134 79.8692 272.268 77.7384 271.375 75.543C270.54 73.4783 269.706 71.4129 268.873 69.3474C268.293 67.9121 267.711 66.4775 267.127 65.0437C266.288 62.9829 265.456 60.9195 264.625 58.8555C264.363 58.2148 264.1 57.574 263.83 56.9139C262.704 54.1009 262 52.0628 262 49C264.64 49 267.28 49 270 49C273.594 55.7894 276.324 62.8046 279 70C282.594 63.2107 285.324 56.1954 288 49C290.97 49 293.94 49 297 49C294.818 56.8143 291.99 64.1652 288.812 71.625C288.349 72.7246 287.886 73.8242 287.408 74.9571C286.277 77.64 285.139 80.3203 284 83C289.94 83 295.88 83 302 83C302 71.78 302 60.56 302 49C310.58 49 319.16 49 328 49C328 51.31 328 53.62 328 56C322.06 56 316.12 56 310 56C310 58.64 310 61.28 310 64C315.61 64 321.22 64 327 64C327 65.98 327 67.96 327 70C321.39 70 315.78 70 310 70C310 72.64 310 75.28 310 78C316.27 78 322.54 78 329 78C329 79.65 329 81.3 329 83C331.31 83 333.62 83 336 83C336 71.78 336 60.56 336 49C339.692 48.9382 343.384 48.8763 347.188 48.8125C348.343 48.7852 349.498 48.7579 350.688 48.7298C351.61 48.7223 352.531 48.7148 353.48 48.7071C354.418 48.6913 355.355 48.6756 356.321 48.6595C359.558 49.0709 361.38 50.0817 364 52C366.967 56.4509 366.766 60.7811 366 66C364.592 68.5808 363.19 69.9743 361 72C362.375 76.0112 363.856 79.1043 367 82C369.8 82.4292 372.143 82.2381 375 82C373.515 80.515 373.515 80.515 372 79C373.98 76.525 373.98 76.525 376 74C380.75 75.875 380.75 75.875 383 77C384.54 77.0695 386.083 77.0846 387.625 77.0625C388.442 77.0535 389.26 77.0445 390.102 77.0352C390.728 77.0236 391.355 77.012 392 77C392 75.68 392 74.36 392 73C391.192 72.7577 390.384 72.5153 389.551 72.2657C378.748 68.8777 378.748 68.8777 375 65C373.226 61.4512 373.251 57.8558 374 54C375.791 50.9757 377.801 49.4222 381 48C386.758 46.9963 392.086 47.082 397.25 50C398.158 50.66 399.065 51.32 400 52C399.188 54.4375 399.188 54.4375 398 57C395 58 395 58 392.688 57.0625C389.622 55.8508 387.266 55.8481 384 56C383.67 57.32 383.34 58.64 383 60C383.641 60.2424 384.281 60.4847 384.941 60.7344C399.113 66.2255 399.113 66.2255 401 70C401.168 72.0586 401.168 72.0586 401.188 74.4375C401.202 75.22 401.216 76.0024 401.23 76.8086C401 79 401 79 399 82C401.97 82.33 404.94 82.66 408 83C408 71.78 408 60.56 408 49C416.91 49 425.82 49 435 49C435 51.31 435 53.62 435 56C429.06 56 423.12 56 417 56C417 58.31 417 60.62 417 63C422.28 63 427.56 63 433 63C433 65.64 433 68.28 433 71C427.72 71 422.44 71 417 71C417 73.31 417 75.62 417 78C422.94 78 428.88 78 435 78C435 79.65 435 81.3 435 83C436.98 83 438.96 83 441 83C441 83.66 441 84.32 441 85C430.299 85.232 419.6 85.4095 408.897 85.5182C403.927 85.5703 398.959 85.6409 393.99 85.7544C389.191 85.8633 384.395 85.9229 379.595 85.9488C377.767 85.9672 375.939 86.0033 374.111 86.0573C359.681 86.4673 359.681 86.4673 355.419 82.7468C353.569 80.0093 353.569 80.0093 352.253 77.2631C351.22 74.8684 351.22 74.8684 349.062 74.1166C346.891 73.8001 346.891 73.8001 344 74C344 77.63 344 81.26 344 85C313.64 85 283.28 85 252 85C251.34 82.69 250.68 80.38 250 78C244.39 78 238.78 78 233 78C232.67 79.65 232.34 81.3 232 83C231.67 83.99 231.34 84.98 231 86C223.74 86 216.48 86 209 86C208.67 79.4 208.34 72.8 208 66C205.36 71.28 202.72 76.56 200 82C198.02 82 196.04 82 194 82C191.36 76.72 188.72 71.44 186 66C185.67 72.6 185.34 79.2 185 86C180.975 86.271 176.968 86.4684 172.938 86.625C171.804 86.7088 170.67 86.7926 169.502 86.8789C161.208 87.1208 161.208 87.1208 157.629 83.7998C153 77.317 153 77.317 153 74C150.69 74 148.38 74 146 74C146 77.63 146 81.26 146 85C127.52 85 109.04 85 90 85C90 84.34 90 83.68 90 83C94.95 82.505 94.95 82.505 100 82C99.2163 81.2782 98.4325 80.5563 97.625 79.8125C92.7781 74.6194 92.5527 69.7495 92.6875 62.875C93.2734 57.4845 96.181 54.6141 100.062 51.1875C106.159 46.6477 114.58 46.4907 121.438 49.6875Z" fill="#3CB0D2"/>
<path d="M121.438 49.6876C126.068 52.3674 128.937 56.1023 131 61.0001C131.723 67.2121 131.614 72.7076 128 78.0001C126.68 79.3201 125.36 80.6401 124 82.0001C130.93 82.4951 130.93 82.4951 138 83.0001C138 71.7801 138 60.5601 138 49.0001C141.527 48.9382 145.054 48.8763 148.688 48.8126C150.342 48.7716 150.342 48.7716 152.03 48.7298C158.407 48.6756 161.971 49.2845 166.812 53.6251C168.673 57.3451 168.547 60.9243 168 65.0001C166.478 68.3351 164.585 70.4658 162 73.0001C162.799 74.4981 163.641 75.9732 164.5 77.4376C165.196 78.6732 165.196 78.6732 165.906 79.9337C168.47 82.8832 168.47 82.8832 176 83.0001C176 71.4501 176 59.9001 176 48.0001C179.63 48.0001 183.26 48.0001 187 48.0001C188.321 50.3917 189.632 52.7879 190.938 55.1876C191.497 56.1979 191.497 56.1979 192.068 57.2286C194.006 60.8063 195.498 63.8987 196 68.0001C196.66 68.0001 197.32 68.0001 198 68.0001C198.238 67.1996 198.238 67.1996 198.48 66.3829C200.408 60.2291 203.02 54.7179 206 49.0001C209.96 49.0001 213.92 49.0001 218 49.0001C218 60.5501 218 72.1001 218 84.0001C222.29 84.3301 226.58 84.6601 231 85.0001C231 85.3301 231 85.6601 231 86.0001C223.74 86.0001 216.48 86.0001 209 86.0001C208.67 79.4001 208.34 72.8001 208 66.0001C205.36 71.2801 202.72 76.5601 200 82.0001C198.02 82.0001 196.04 82.0001 194 82.0001C191.36 76.7201 188.72 71.4401 186 66.0001C185.67 72.6001 185.34 79.2001 185 86.0001C180.975 86.2711 176.968 86.4684 172.938 86.6251C171.804 86.7089 170.67 86.7927 169.502 86.879C161.208 87.1208 161.208 87.1208 157.629 83.7999C153 77.3171 153 77.3171 153 74.0001C150.69 74.0001 148.38 74.0001 146 74.0001C146 77.6301 146 81.2601 146 85.0001C127.52 85.0001 109.04 85.0001 90 85.0001C90 84.3401 90 83.6801 90 83.0001C94.95 82.5051 94.95 82.5051 100 82.0001C99.2163 81.2782 98.4325 80.5563 97.625 79.8126C92.7781 74.6195 92.5527 69.7496 92.6875 62.8751C93.2734 57.4845 96.181 54.6142 100.062 51.1876C106.159 46.6478 114.58 46.4908 121.438 49.6876Z" fill="#52A0E4"/>
<path d="M98.5234 9.49992C103.151 13.6625 104.352 19.0063 106 24.828C107.495 27.1876 107.495 27.1876 109 28.828C107.948 29.7252 107.948 29.7252 106.875 30.6405C104.317 33.1768 102.787 35.8926 101.125 39.078C94.0173 52.57 83.2921 63.3479 70 70.828C68.3661 71.3153 68.3661 71.3153 66.6992 71.8124C65.8085 72.1476 64.9177 72.4827 64 72.828C63.4829 74.7995 62.9757 76.778 62.6211 78.7851C61.5083 82.4455 59.1363 83.7799 56 85.828C55.01 85.828 54.02 85.828 53 85.828C53 82.528 53 79.228 53 75.828C52.2382 75.8745 51.4763 75.9209 50.6914 75.9687C43.706 76.2129 37.7938 76.0677 32 71.828C28.0508 67.8134 25.66 63.6952 25.3125 58.0155C26.2552 43.8975 36.132 31.2591 46.312 22.2187C59.2818 11.5337 82.0018 -0.835228 98.5234 9.49992ZM41.1953 31.3046C32.9511 40.7811 29.569 49.6851 29.7227 62.2694C30.1161 65.8994 31.2253 67.4915 34 69.828C38.1861 72.9408 41.6721 72.962 46.7227 72.9023C48.4843 72.8862 48.4843 72.8862 50.2815 72.8698C51.6272 72.8491 51.6272 72.8491 53 72.828C53.0146 71.865 53.0292 70.902 53.0442 69.9098C53.1025 66.3107 53.1797 62.7121 53.2625 59.1134C53.2955 57.5608 53.3236 56.0081 53.3464 54.4552C53.3803 52.2131 53.4326 49.9721 53.4883 47.7304C53.4947 47.0447 53.5011 46.359 53.5076 45.6525C53.6722 40.1654 54.8496 35.3256 58.5 31.0859C62.9793 27.7031 66.0084 26.7166 71.543 26.5116C72.6161 26.4697 73.6893 26.4278 74.7949 26.3847C76.4742 26.3257 76.4742 26.3257 78.1875 26.2655C79.3187 26.2224 80.4498 26.1792 81.6152 26.1347C84.41 26.0286 87.2049 25.9265 90 25.828C86.9171 33.234 86.9171 33.234 83.7266 35.3007C78.9762 36.2195 74.2228 36.2397 69.3984 36.3866C66.1059 36.5759 66.1059 36.5759 64.0508 38.039C62.6227 40.4705 62.7034 42.2158 62.8125 45.0155C62.8744 46.6037 62.9362 48.1918 63 49.828C68.61 49.828 74.22 49.828 80 49.828C78 56.828 78 56.828 76 58.203C71.6951 59.0999 67.3818 59.5047 63 59.828C63 62.798 63 65.768 63 68.828C67.5865 68.2763 70.9541 66.3103 74.75 63.828C75.3662 63.4265 75.9823 63.025 76.6172 62.6112C86.3537 56.0829 94.1106 47.5583 99 36.828C99.5 34.328 99.5 34.328 99 31.828C97.1042 29.5143 97.1042 29.5143 95 27.828C96.2375 27.0855 96.2375 27.0855 97.5 26.328C100.37 23.9375 100.37 23.9375 100.688 19.8905C100.543 17.3951 100.293 16.1913 98.7148 14.2343C81.4674 -0.343366 53.4451 18.5034 41.1953 31.3046Z" fill="#4299E2"/>
<path d="M121.438 49.6876C126.068 52.3674 128.937 56.1023 131 61.0001C131.723 67.2121 131.614 72.7076 128 78.0001C125.938 80.3751 125.938 80.3751 124 82.0001C123.34 82.0001 122.68 82.0001 122 82.0001C122.33 82.9901 122.66 83.9801 123 85.0001C112.11 85.0001 101.22 85.0001 90 85.0001C90 84.3401 90 83.6801 90 83.0001C94.95 82.5051 94.95 82.5051 100 82.0001C99.2163 81.2782 98.4325 80.5563 97.625 79.8126C92.7781 74.6195 92.5527 69.7496 92.6875 62.8751C93.2734 57.4845 96.181 54.6142 100.062 51.1876C106.159 46.6478 114.58 46.4908 121.438 49.6876Z" fill="#5E84F9"/>
<path d="M138 49C141.527 48.9381 145.054 48.8762 148.688 48.8125C150.342 48.7715 150.342 48.7715 152.03 48.7297C158.407 48.6755 161.971 49.2844 166.812 53.625C168.673 57.345 168.547 60.9242 168 65C166.478 68.3349 164.585 70.4657 162 73C163.8 77.2514 165.694 80.7441 169 84C174.391 85.3505 178.271 85.1521 184 85C184 77.74 184 70.48 184 63C184.66 63.33 185.32 63.66 186 64C185.67 71.26 185.34 78.52 185 86C180.975 86.2709 176.968 86.4683 172.938 86.625C171.804 86.7088 170.67 86.7925 169.502 86.8789C161.208 87.1207 161.208 87.1207 157.629 83.7998C153 77.317 153 77.317 153 74C150.69 74 148.38 74 146 74C146 77.63 146 81.26 146 85C138.41 85 130.82 85 123 85C123 84.01 123 83.02 123 82C127.95 82.33 132.9 82.66 138 83C138 71.78 138 60.56 138 49Z" fill="#5B91F1"/>
<path d="M336 49C339.692 48.9381 343.384 48.8762 347.188 48.8125C348.343 48.7852 349.498 48.7579 350.688 48.7297C351.61 48.7222 352.531 48.7148 353.48 48.707C354.418 48.6913 355.355 48.6756 356.321 48.6594C359.558 49.0709 361.38 50.0816 364 52C366.967 56.4509 366.766 60.781 366 66C364.592 68.5808 363.19 69.9743 361 72C362.376 76.0141 364.343 78.7231 367 82C367 82.66 367 83.32 367 84C369.97 84 372.94 84 376 84C376 84.33 376 84.66 376 85C363.32 86.2076 363.32 86.2076 358 85C355.278 82.6214 354.031 80.4876 352.391 77.293C351.222 74.8791 351.222 74.8791 349.047 74.1133C346.888 73.8005 346.888 73.8005 344 74C344 77.63 344 81.26 344 85C338.848 85.0904 334.081 84.8468 329 84C329 83.67 329 83.34 329 83C331.31 83 333.62 83 336 83C336 71.78 336 60.56 336 49Z" fill="#40B1D3"/>
<path d="M99.5234 9.67179C104.151 13.8344 105.352 19.1782 107 24.9999C108.495 27.3595 108.495 27.3595 110 28.9999C108.948 29.8971 108.948 29.8971 107.875 30.8124C105.317 33.3486 103.787 36.0645 102.125 39.2499C95.0173 52.7419 84.2921 63.5197 71 70.9999C69.3661 71.4872 69.3661 71.4872 67.6992 71.9843C66.8085 72.3195 65.9177 72.6546 65 72.9999C64.4829 74.9714 63.9757 76.9499 63.6211 78.9569C62.5083 82.6173 60.1363 83.9518 57 85.9999C56.01 85.9999 55.02 85.9999 54 85.9999C54 82.6999 54 79.3999 54 75.9999C53.2382 76.0463 52.4763 76.0927 51.6914 76.1405C44.706 76.3847 38.7938 76.2396 33 71.9999C29.0508 67.9853 26.66 63.8671 26.3125 58.1874C27.2552 44.0694 37.132 31.431 47.312 22.3905C60.2818 11.7056 83.0018 -0.663353 99.5234 9.67179ZM42.1953 31.4765C33.9511 40.953 30.569 49.857 30.7227 62.4413C31.1161 66.0713 32.2253 67.6633 35 69.9999C39.6451 72.7883 42.9864 73.3399 48.375 73.1874C50.2429 73.1468 50.2429 73.1468 52.1484 73.1054C53.56 73.0532 53.56 73.0532 55 72.9999C55.33 73.9899 55.66 74.9799 56 75.9999C58.3731 76.4177 58.3731 76.4177 61 75.9999C62.8188 73.6166 64 72.0417 64 68.9999C64.6858 68.9174 65.3716 68.8349 66.0781 68.7499C69.7458 67.8085 72.6162 66.0492 75.75 63.9999C76.3662 63.5984 76.9823 63.1968 77.6172 62.7831C87.3537 56.2548 95.1106 47.7301 100 36.9999C100.5 34.4999 100.5 34.4999 100 31.9999C98.1042 29.6861 98.1042 29.6861 96 27.9999C97.2375 27.2574 97.2375 27.2574 98.5 26.4999C101.37 24.1093 101.37 24.1093 101.688 20.0624C101.543 17.5669 101.293 16.3632 99.7148 14.4062C82.4674 -0.171491 54.4451 18.6753 42.1953 31.4765Z" fill="#51A3CE"/>
<path d="M237 49C239.97 49 242.94 49 246 49C249.725 56.8807 253.398 64.784 256.938 72.75C257.244 73.4287 257.55 74.1074 257.865 74.8066C259.147 77.7151 260 79.7847 260 83C264.95 83 269.9 83 275 83C275 83.33 275 83.66 275 84C267.41 84.33 259.82 84.66 252 85C251.34 82.69 250.68 80.38 250 78C244.39 78 238.78 78 233 78C232.505 80.475 232.505 80.475 232 83C231.67 83.66 231.34 84.32 231 85C226.71 85 222.42 85 218 85C217.67 84.34 217.34 83.68 217 83C218.98 83 220.96 83 223 83C223.378 81.7844 223.755 80.5688 224.145 79.3164C226.246 73.012 228.977 66.9988 231.688 60.9375C232.199 59.7857 232.71 58.6339 233.236 57.4473C234.487 54.6299 235.742 51.8142 237 49Z" fill="#42ADD6"/>
<path d="M115 55.0001C118.082 56.6283 120.264 58.0302 122.375 60.8126C123.728 65.5482 123.593 68.8986 121.25 73.2501C118.338 76.8091 116.75 78.7338 112.125 79.4376C108.129 78.8782 106.075 77.5864 103 75.0001C100.49 71.1809 100.844 67.5272 101.449 63.1563C102.24 60.0602 103.73 58.2008 106 56.0001C109.109 54.4453 111.562 54.7136 115 55.0001Z" fill="#FAFBFE"/>
<path d="M38 32C38.66 33.32 39.32 34.64 40 36C39.2162 37.0519 38.4325 38.1038 37.625 39.1875C32.2308 46.776 30.7369 55.7933 32 65C34.517 68.4259 37.0564 70.4879 41 72C43.6243 72.1396 46.1329 72.1893 48.75 72.125C49.4474 72.116 50.1448 72.107 50.8633 72.0977C52.5757 72.0742 54.2879 72.0383 56 72C56 72.99 56 73.98 56 75C51.2115 77.3943 44.5069 76.5613 39.418 75.4219C34.0728 73.4186 30.9091 70.3948 28.0391 65.4805C25.293 58.925 26.6157 53.3784 29.125 46.9375C31.5489 41.5687 34.5161 36.7409 38 32Z" fill="#5FC5D3"/>
<path d="M92 7.99989C92 8.32989 92 8.65989 92 8.99989C90.9791 9.00376 90.9791 9.00376 89.9375 9.0077C72.8599 9.68899 56.6545 17.987 44.75 30.0624C44.0642 30.8165 43.3784 31.5706 42.6719 32.3475C41 33.9999 41 33.9999 39 33.9999C40.0274 27.5462 45.8129 23.315 50.8472 19.6581C64.9634 10.0144 75.0154 7.50519 92 7.99989Z" fill="#3757E7"/>
<path d="M146 56C147.979 55.9731 149.958 55.9537 151.938 55.9375C153.04 55.9259 154.142 55.9143 155.277 55.9023C158 56 158 56 159 57C159.371 62.8411 159.371 62.8411 159 65C154.615 67.9233 151.223 67.1357 146 67C146 63.37 146 59.74 146 56Z" fill="#F2F6FE"/>
<path d="M345 56C346.791 55.9461 348.583 55.9072 350.375 55.875C351.373 55.8518 352.37 55.8286 353.398 55.8047C356 56 356 56 358 58C358.25 61 358.25 61 358 64C356 66 356 66 353.398 66.1953C352.401 66.1721 351.403 66.1489 350.375 66.125C348.871 66.0979 348.871 66.0979 347.336 66.0703C346.565 66.0471 345.794 66.0239 345 66C345 62.7 345 59.4 345 56Z" fill="#FBFDFE"/>
<path d="M64 50C69.61 50 75.22 50 81 50C79.7767 56.1165 79.7767 56.1165 77 58C74.3711 58.3984 74.3711 58.3984 71.4375 58.375C70.4668 58.3827 69.4962 58.3905 68.4961 58.3984C67.6724 58.267 66.8487 58.1355 66 58C65.34 57.01 64.68 56.02 64 55C64.99 54.67 65.98 54.34 67 54C67 54.66 67 55.32 67 56C67.66 56 68.32 56 69 56C69.33 54.68 69.66 53.36 70 52C67.03 51.505 67.03 51.505 64 51C64 50.67 64 50.34 64 50Z" fill="#3493D0"/>
<path d="M61.4761 74C61.8258 74 62.1754 74 62.5357 74C63.2938 80.0823 63.2938 80.0823 61.232 82.5781C58.4027 84.8726 56.7863 86 53 86C53 82.37 53 78.74 53 75C54.2019 75.0206 55.4038 75.0412 56.6421 75.0625C60.2214 75.4158 60.2214 75.4158 61.4761 74Z" fill="#40A2C0"/>
<path d="M55 37C55.8975 40.0683 56.1171 42.7927 56.0977 45.9844C56.0944 46.9189 56.0912 47.8535 56.0879 48.8164C56.0795 49.7845 56.0711 50.7526 56.0625 51.75C56.058 52.7336 56.0535 53.7171 56.0488 54.7305C56.0371 57.1537 56.0206 59.5768 56 62C56.99 62 57.98 62 59 62C58.7455 63.4821 58.4709 64.9607 58.1875 66.4375C58.0367 67.2612 57.8859 68.0849 57.7305 68.9336C57.4894 69.6155 57.2484 70.2974 57 71C55.515 71.495 55.515 71.495 54 72C53.9753 67.4976 53.9571 62.9953 53.9451 58.4929C53.9401 56.9613 53.9332 55.4298 53.9246 53.8982C53.9124 51.6964 53.9068 49.4948 53.9024 47.293C53.8972 46.6085 53.892 45.924 53.8867 45.2188C53.8864 42.1909 54.0338 39.8985 55 37Z" fill="#50A7C6"/>
<path d="M72.543 25.9025C73.6161 25.9057 74.6893 25.9089 75.7949 25.9122C76.9145 25.9206 78.034 25.929 79.1875 25.9376C80.8842 25.9444 80.8842 25.9444 82.6152 25.9513C85.4102 25.9631 88.2051 25.9795 91 26.0001C90.3791 29.6831 89.9333 31.5769 87 34C86.67 32.35 86.34 30.7001 86 29.0001C82.771 28.9126 79.5423 28.8596 76.3125 28.8126C75.4005 28.7875 74.4885 28.7623 73.5488 28.7364C68.3954 28.6802 65.3131 28.895 61 32.0001C60.34 31.6701 59.68 31.3401 59 31.0001C63.6615 27.0945 66.4886 25.8704 72.543 25.9025Z" fill="#7A9FE7"/>
<path d="M99 40C100 43 100 43 99.1016 44.9453C95.0794 50.8828 90.612 56.4783 85 61C84.01 61 83.02 61 82 61C83.3447 57.9612 84.8038 56.0439 87.25 53.8125C90.7106 50.4819 93.2179 46.8943 95.7383 42.8203C97 41 97 41 99 40Z" fill="#528ED9"/>
<path d="M37.9998 32C38.6598 33.32 39.3198 34.64 39.9998 36C39.2573 36.9694 38.5148 37.9388 37.7498 38.9375C34.8171 43.0149 32.8821 47.3626 30.9998 52C30.3398 52 29.6798 52 28.9998 52C28.645 47.6548 29.6666 45.1912 31.8123 41.4375C32.5954 40.0434 32.5954 40.0434 33.3944 38.6211C34.8176 36.2975 36.3207 34.1431 37.9998 32Z" fill="#4BACCE"/>
<path d="M77 7.00011C94.1551 6.25062 94.1551 6.25062 101 11.0001C101.33 11.6601 101.66 12.3201 102 13.0001C100.312 13.6876 100.312 13.6876 98 14.0001C97.2987 13.5154 96.5975 13.0307 95.875 12.5314C92.1243 10.5337 88.8187 10.6686 84.6875 10.8126C83.5767 10.8329 83.5767 10.8329 82.4434 10.8536C80.6286 10.8888 78.8142 10.9426 77 11.0001C77.99 10.3401 78.98 9.68011 80 9.00011C79.01 8.34011 78.02 7.68011 77 7.00011Z" fill="#8299F1"/>
<path d="M38 72C44.27 72 50.54 72 57 72C57 72.99 57 73.98 57 75C54.3234 76.3383 52.1757 76.2058 49.1875 76.25C48.1498 76.2758 47.1121 76.3016 46.043 76.3281C42.6255 75.9596 40.7537 75.0156 38 73C38 72.67 38 72.34 38 72Z" fill="#53C5D3"/>
<path d="M241 60C243 61 243 61 243.852 63.0664C244.107 63.8901 244.362 64.7138 244.625 65.5625C244.885 66.3888 245.146 67.2151 245.414 68.0664C245.607 68.7045 245.801 69.3426 246 70C243.03 70 240.06 70 237 70C238.32 66.7 239.64 63.4 241 60Z" fill="#EFF8FB"/>
<path d="M62 60C62.3667 60 62.7333 60 63.1111 60C63.1111 62.97 63.1111 65.94 63.1111 69C65.6778 68.34 68.2444 67.68 70.8889 67C71.2556 67.99 71.6222 68.98 72 70C70.1094 70.5569 70.1094 70.5569 68.1806 71.125C66.0207 71.8664 66.0207 71.8664 64.2222 73C63.0472 76.0837 63.0472 76.0837 63.1111 79C62.7444 79 62.3778 79 62 79C62 72.73 62 66.46 62 60Z" fill="#5DB9D1"/>
<path d="M49 21C49.66 21.33 50.32 21.66 51 22C48.1218 26.6494 45.0479 30.3041 41 34C40.34 34 39.68 34 39 34C39.5178 29.8955 41.6463 28.043 44.5625 25.25C45.3888 24.4508 46.2151 23.6516 47.0664 22.8281C47.7045 22.2248 48.3426 21.6216 49 21Z" fill="#4A73DF"/>
<path d="M28 50C28.33 50.66 28.66 51.32 29 52C29.66 52 30.32 52 31 52C31.33 51.34 31.66 50.68 32 50C31.67 54.29 31.34 58.58 31 63C30.34 62.01 29.68 61.02 29 60C28.34 60.99 27.68 61.98 27 63C26.9729 61.3959 26.9536 59.7917 26.9375 58.1875C26.9259 57.2942 26.9143 56.4009 26.9023 55.4805C27 53 27 53 28 50Z" fill="#86CADC"/>
<path d="M38 32C38.66 33.32 39.32 34.64 40 36C38.02 38.97 38.02 38.97 36 42C35.67 41.34 35.34 40.68 35 40C34.34 39.67 33.68 39.34 33 39C34.65 36.69 36.3 34.38 38 32Z" fill="#64B4E0"/>
<path d="M27.9999 55C28.3299 55 28.6599 55 28.9999 55C29.505 56.6026 30.0038 58.2071 30.4999 59.8125C30.7783 60.7058 31.0568 61.5991 31.3436 62.5195C31.9999 65 31.9999 65 31.9999 68C31.0099 67.67 30.0199 67.34 28.9999 67C27.7375 64.4752 27.9013 62.688 27.9374 59.875C27.9464 58.9649 27.9554 58.0548 27.9647 57.1172C27.9763 56.4185 27.9879 55.7198 27.9999 55Z" fill="#42B7CC"/>
<path d="M65 13C64 16 64 16 60.9375 17.6875C59.9681 18.1206 58.9987 18.5538 58 19C58 17.68 58 16.36 58 15C61 13 61 13 65 13Z" fill="#445CE9"/>
<path d="M63 74C63 76.31 63 78.62 63 81C62.01 81.495 62.01 81.495 61 82C60.67 80.68 60.34 79.36 60 78C58.68 78 57.36 78 56 78C56 77.34 56 76.68 56 76C61.875 74 61.875 74 63 74Z" fill="#36ACC6"/>
<path d="M88 55C88.66 55.33 89.32 55.66 90 56C87.6875 58.5 87.6875 58.5 85 61C84.01 61 83.02 61 82 61C83.0145 58.4636 83.6854 57.2065 86 55.6875C86.66 55.4606 87.32 55.2338 88 55Z" fill="#4190CA"/>
<path d="M42 28C42.99 28 43.98 28 45 28C43.9513 30.6219 43.3507 31.7937 40.875 33.25C40.2563 33.4975 39.6375 33.745 39 34C39.5734 31.1328 39.8615 30.1385 42 28Z" fill="#4B8DDD"/>
<path d="M80 50C80.75 51.75 81.5 49.5 81 54C79.0625 56.25 79.0625 56.25 77 58C76.34 57.34 75.68 56.68 75 56C75.99 56 76.98 56 78 56C78 54.35 78 52.7 78 51C78.66 50.67 79.32 50.34 80 50Z" fill="#4097D2"/>
<path d="M85.8783 29C86.9085 29 87.9388 29 89.0002 29C88.61 31.0982 88.6504 30.8125 88 33C87 34.5 86.122 34 85.0001 34C83.8293 30.6071 84.7076 30.6071 85.8783 29Z" fill="#668CF4"/>
</g>
<defs>
<clipPath id="clip0_275_2412">
<rect width="472" height="113" fill="white"/>
</clipPath>
</defs>
</svg>
